[
    {
        "start": {
            "timestamp": {
                "n": 0,
                "pts": 0,
                "pts_time": 0
            },
            "event": {
                "type": "start_marker",
                "trial_type": "animation",
                "trial_index": "trial-1-1"
            }
        },
        "end": {
            "timestamp": {
                "n": 70,
                "pts": 70,
                "pts_time": 2.33333
            },
            "event": {
                "type": "end_marker",
                "trial_type": "animation",
                "trial_index": "0",
                "time_elapsed": "3006"
            }
        }
    },
    {
        "start": {
            "timestamp": {
                "n": 71,
                "pts": 71,
                "pts_time": 2.36667
            },
            "event": {
                "type": "start_marker",
                "trial_type": "disks",
                "trial_index": "disk-condition-11-1"
            }
        },
        "end": {
            "timestamp": {
                "n": 190,
                "pts": 190,
                "pts_time": 6.33333
            },
            "event": {
                "type": "end_marker",
                "trial_type": "disks",
                "trial_index": "1",
                "time_elapsed": "11105"
            }
        }
    },
    {
        "start": {
            "timestamp": {
                "n": 234,
                "pts": 234,
                "pts_time": 7.8
            },
            "event": {
                "type": "start_marker",
                "trial_type": "disks",
                "trial_index": "disk-condition-11-1"
            }
        },
        "end": {
            "timestamp": {
                "n": 354,
                "pts": 354,
                "pts_time": 11.8
            },
            "event": {
                "type": "end_marker",
                "trial_type": "disks",
                "trial_index": "3",
                "time_elapsed": "22152"
            }
        }
    },
    {
        "start": {
            "timestamp": {
                "n": 356,
                "pts": 356,
                "pts_time": 11.8667
            },
            "event": {
                "type": "start_marker",
                "trial_type": "animation",
                "trial_index": "trial-1-5"
            }
        },
        "end": {
            "timestamp": {
                "n": 410,
                "pts": 410,
                "pts_time": 13.6667
            },
            "event": {
                "type": "end_marker",
                "trial_type": "animation",
                "trial_index": "4",
                "time_elapsed": "25157"
            }
        }
    },
    {
        "start": {
            "timestamp": {
                "n": 412,
                "pts": 412,
                "pts_time": 13.7333
            },
            "event": {
                "type": "start_marker",
                "trial_type": "disks",
                "trial_index": "disk-condition-11-1"
            }
        },
        "end": {
            "timestamp": {
                "n": 534,
                "pts": 534,
                "pts_time": 17.8
            },
            "event": {
                "type": "end_marker",
                "trial_type": "disks",
                "trial_index": "5",
                "time_elapsed": "33230"
            }
        }
    },
    {
        "start": {
            "timestamp": {
                "n": 536,
                "pts": 536,
                "pts_time": 17.8667
            },
            "event": {
                "type": "start_marker",
                "trial_type": "animation",
                "trial_index": "trial-1-7"
            }
        },
        "end": {
            "timestamp": {
                "n": 596,
                "pts": 596,
                "pts_time": 19.8667
            },
            "event": {
                "type": "end_marker",
                "trial_type": "animation",
                "trial_index": "6",
                "time_elapsed": "36235"
            }
        }
    },
    {
        "start": {
            "timestamp": {
                "n": 598,
                "pts": 598,
                "pts_time": 19.9333
            },
            "event": {
                "type": "start_marker",
                "trial_type": "disks",
                "trial_index": "disk-condition-11-1"
            }
        },
        "end": {
            "timestamp": {
                "n": 736,
                "pts": 736,
                "pts_time": 24.5333
            },
            "event": {
                "type": "end_marker",
                "trial_type": "disks",
                "trial_index": "7",
                "time_elapsed": "44278"
            }
        }
    },
    {
        "start": {
            "timestamp": {
                "n": 738,
                "pts": 738,
                "pts_time": 24.6
            },
            "event": {
                "type": "start_marker",
                "trial_type": "animation",
                "trial_index": "trial-1-9"
            }
        },
        "end": {
            "timestamp": {
                "n": 794,
                "pts": 794,
                "pts_time": 26.4667
            },
            "event": {
                "type": "end_marker",
                "trial_type": "animation",
                "trial_index": "8",
                "time_elapsed": "47282"
            }
        }
    },
    {
        "start": {
            "timestamp": {
                "n": 796,
                "pts": 796,
                "pts_time": 26.5333
            },
            "event": {
                "type": "start_marker",
                "trial_type": "disks",
                "trial_index": "disk-condition-11-1"
            }
        },
        "end": {
            "timestamp": {
                "n": 931,
                "pts": 931,
                "pts_time": 31.0333
            },
            "event": {
                "type": "end_marker",
                "trial_type": "disks",
                "trial_index": "9",
                "time_elapsed": "55325"
            }
        }
    },
    {
        "start": {
            "timestamp": {
                "n": 992,
                "pts": 992,
                "pts_time": 33.0667
            },
            "event": {
                "type": "start_marker",
                "trial_type": "disks",
                "trial_index": "disk-condition-11-1"
            }
        },
        "end": {
            "timestamp": {
                "n": 1137,
                "pts": 1137,
                "pts_time": 37.9
            },
            "event": {
                "type": "end_marker",
                "trial_type": "disks",
                "trial_index": "11",
                "time_elapsed": "66373"
            }
        }
    },
    {
        "start": {
            "timestamp": {
                "n": 1138,
                "pts": 1138,
                "pts_time": 37.9333
            },
            "event": {
                "type": "start_marker",
                "trial_type": "animation",
                "trial_index": "trial-1-13"
            }
        },
        "end": {
            "timestamp": {
                "n": 1194,
                "pts": 1194,
                "pts_time": 39.8
            },
            "event": {
                "type": "end_marker",
                "trial_type": "animation",
                "trial_index": "12",
                "time_elapsed": "69378"
            }
        }
    },
    {
        "start": {
            "timestamp": {
                "n": 1196,
                "pts": 1196,
                "pts_time": 39.8667
            },
            "event": {
                "type": "start_marker",
                "trial_type": "disks",
                "trial_index": "disk-condition-11-1"
            }
        },
        "end": {
            "timestamp": {
                "n": 1308,
                "pts": 1308,
                "pts_time": 43.6
            },
            "event": {
                "type": "end_marker",
                "trial_type": "disks",
                "trial_index": "13",
                "time_elapsed": "77423"
            }
        }
    }
]